<?xml version="1.0" encoding="UTF-8" standalone="no"?>
<svg
   xmlns:dc="http://purl.org/dc/elements/1.1/"
   xmlns:cc="http://creativecommons.org/ns#"
   xmlns:rdf="http://www.w3.org/1999/02/22-rdf-syntax-ns#"
   xmlns:svg="http://www.w3.org/2000/svg"
   xmlns="http://www.w3.org/2000/svg"
   xmlns:sodipodi="http://sodipodi.sourceforge.net/DTD/sodipodi-0.dtd"
   xmlns:inkscape="http://www.inkscape.org/namespaces/inkscape"
   width="59.6"
   height="89"
   viewBox="-322 736.9 59.6 89"
   version="1.1"
   id="svg853"
   sodipodi:docname="euro-icon.svg"
   inkscape:version="1.0.1 (3bc2e813f5, 2020-09-07)">
  <metadata
     id="metadata859">
    <rdf:RDF>
      <cc:Work
         rdf:about="">
        <dc:format>image/svg+xml</dc:format>
        <dc:type
           rdf:resource="http://purl.org/dc/dcmitype/StillImage" />
        <dc:title></dc:title>
      </cc:Work>
    </rdf:RDF>
  </metadata>
  <defs
     id="defs857" />
  <sodipodi:namedview
     pagecolor="#ffffff"
     bordercolor="#666666"
     borderopacity="1"
     objecttolerance="10"
     gridtolerance="10"
     guidetolerance="10"
     inkscape:pageopacity="0"
     inkscape:pageshadow="2"
     inkscape:window-width="1920"
     inkscape:window-height="1017"
     id="namedview855"
     showgrid="false"
     inkscape:zoom="6.5705315"
     inkscape:cx="29.799999"
     inkscape:cy="48.804716"
     inkscape:window-x="1912"
     inkscape:window-y="-8"
     inkscape:window-maximized="1"
     inkscape:current-layer="svg853"
     inkscape:document-rotation="0" />
  <path
     d="M-322 736.9h59.6v89H-322z"
     fill="#232f68"
     id="path847" />
  <path
     d="M-291.7 751.8h2l-1.6 1.1.6 1.9-1.6-1.2-1.6 1.2.7-1.9-1.6-1.1h1.9l.6-1.8.6 1.8m.1 29.6h1.9l-1.5 1.1.6 1.8-1.6-1.1-1.6 1.1.6-1.8-1.5-1.1h1.9l.6-1.8.6 1.8m7.5-2h1.9l-1.5 1.2.6 1.8-1.6-1.1-1.6 1.1.7-1.8-1.6-1.2h1.9l.6-1.8.6 1.8m0-25.7h1.9l-1.5 1.2.6 1.8-1.6-1.1-1.6 1.1.7-1.8-1.6-1.2h1.9l.6-1.8.6 1.8m5.6 5.5h1.9l-1.6 1.1.7 1.9-1.6-1.2-1.6 1.2.6-1.9-1.6-1.1h2l.6-1.8.6 1.8m0 14.8h1.9l-1.6 1.2.7 1.8-1.6-1.1-1.6 1.1.6-1.8-1.6-1.2h2l.6-1.7.6 1.7m2-7.5h2l-1.6 1.1.6 1.9-1.5-1.2-1.6 1.2.6-1.9-1.6-1.1h2l.6-1.8.5 1.8m-22.9-12.7h2l-1.6 1.1.6 1.8-1.5-1.1-1.6 1.1.6-1.8-1.6-1.1h2l.6-1.8.5 1.8m-5.4 5.4h2l-1.6 1.1.6 1.9-1.6-1.2-1.5 1.2.6-1.9-1.6-1.1h1.9l.6-1.8.6 1.8m-2 7.3h2l-1.6 1.2.6 1.8-1.6-1.1-1.5 1.1.6-1.8-1.6-1.2h1.9l.6-1.8.6 1.8m2 7.6h2l-1.6 1.1.6 1.8-1.6-1.1-1.5 1.1.6-1.8-1.6-1.1h1.9l.6-1.8.6 1.8m5.5 5.3h2l-1.6 1.2.6 1.8-1.6-1.1-1.5 1.1.6-1.8-1.6-1.2h1.9l.6-1.8.6 1.8"
     fill="#f3ea1f"
     id="path849" />
  <rect
     style="fill:#232f68;fill-opacity:1"
     id="rect861"
     width="42.616699"
     height="39.065292"
     x="-314.14389"
     y="747.01605" />
  <path
     d="m -293.87618,805.95039 c -0.87402,0.3327 -2.03937,0.66541 -3.35039,0.99811 -1.45669,0.3327 -2.76772,0.49905 -4.07874,0.49905 -3.05905,0 -5.6811,-0.83175 -7.42913,-2.66162 -1.74803,-1.82986 -2.76771,-4.32514 -2.76771,-7.48581 0,-2.99432 0.87401,-5.48959 2.76771,-7.31946 1.8937,-1.82986 4.37008,-2.82797 7.5748,-2.82797 1.60236,0 3.05905,0.16635 4.07874,0.49905 1.01968,0.33271 2.18504,0.66541 3.20472,1.33081 v 4.65784 h -0.43701 c -0.29134,-0.16635 -0.58267,-0.49905 -1.01969,-0.83176 -0.437,-0.33269 -0.87401,-0.6654 -1.31102,-0.83175 -0.437,-0.33271 -1.01968,-0.49905 -1.74803,-0.6654 -0.72834,-0.16636 -1.31102,-0.33271 -2.03937,-0.33271 -0.87401,0 -1.60236,0.16635 -2.3307,0.33271 -0.72834,0.33269 -1.31103,0.6654 -1.8937,1.16446 -0.58268,0.49905 -0.87401,1.16445 -1.31102,1.99621 -0.43701,0.83176 -0.43701,1.66351 -0.43701,2.82797 0,2.32892 0.58268,3.99244 1.74803,4.99055 1.16536,0.9981 2.76771,1.66351 4.80708,1.66351 h 1.16536 v -3.82608 h -3.93307 v -3.65974 h 8.74015 z m 19.811,-4.99054 c 0,0.99811 -0.14567,1.82987 -0.58268,2.49527 -0.437,0.66541 -0.87401,1.33081 -1.45669,1.82986 -0.72834,0.49906 -1.60235,0.99811 -2.47637,1.16446 -0.87402,0.16636 -2.03937,0.33271 -3.35039,0.33271 h -8.01181 v -19.62946 h 6.99212 l 3.3504,0.16635 c 0.72834,0.16636 1.45668,0.3327 2.18503,0.66541 0.72835,0.3327 1.31102,0.83175 1.60236,1.49716 0.29134,0.6654 0.58268,1.33081 0.58268,2.16256 0,0.99811 -0.29134,1.82987 -0.72835,2.49528 a 4.3409405,4.9572699 0 0 1 -2.03937,1.66351 v 0.16635 c 1.16536,0.33271 2.18504,0.83176 2.91339,1.49716 0.58267,1.16446 1.01968,2.16257 1.01968,3.49338 z m -6.40944,-7.98486 c 0,-0.33271 -0.14567,-0.66541 -0.29134,-0.99811 -0.14567,-0.33271 -0.43701,-0.49905 -0.72834,-0.6654 -0.29134,-0.16636 -0.72836,-0.16636 -1.16536,-0.16636 h -2.33071 v 4.15879 h 2.33071 c 0.29134,0 0.72835,-0.16635 1.01969,-0.33271 0.437,-0.16635 0.72834,-0.49905 0.87401,-0.83175 0.14567,-0.33271 0.29134,-0.66541 0.29134,-1.16446 z m 1.16535,7.98486 c 0,-0.6654 -0.14567,-0.99811 -0.437,-1.49716 -0.29135,-0.49905 -0.58269,-0.66541 -1.16536,-0.83176 -0.29134,-0.16635 -0.72834,-0.16635 -1.31103,-0.16635 h -3.05904 v 4.82419 h 3.05904 c 0.43702,0 1.01969,-0.16635 1.4567,-0.3327 0.437,-0.16635 0.72834,-0.49906 1.01969,-0.83176 0.437,-0.3327 0.437,-0.66541 0.437,-1.16446 z"
     fill="#ffffff"
     id="path851"
     style="stroke-width:1.55667" />
</svg>
